<mxfile host="app.diagrams.net" agent="Mozilla/5.0 (Macintosh; Intel Mac OS X 10_15_7) AppleWebKit/537.36 (KHTML, like Gecko) Chrome/130.0.0.0 Safari/537.36" version="24.8.4">
  <diagram name="Page-1" id="8B4zx3s9EaX1AzpGvumj">
    <mxGraphModel dx="1226" dy="830" grid="1" gridSize="10" guides="1" tooltips="1" connect="1" arrows="1" fold="1" page="1" pageScale="1" pageWidth="827" pageHeight="1169" math="0" shadow="0">
      <root>
        <mxCell id="0" />
        <mxCell id="1" parent="0" />
        <mxCell id="NbOxTdNeNUbGnm58rGbm-2" style="edgeStyle=orthogonalEdgeStyle;rounded=0;orthogonalLoop=1;jettySize=auto;html=1;exitX=0.5;exitY=1;exitDx=0;exitDy=0;" edge="1" parent="1" source="NbOxTdNeNUbGnm58rGbm-1" target="NbOxTdNeNUbGnm58rGbm-3">
          <mxGeometry relative="1" as="geometry">
            <mxPoint x="414" y="140" as="targetPoint" />
          </mxGeometry>
        </mxCell>
        <mxCell id="NbOxTdNeNUbGnm58rGbm-1" value="Main System Controller&amp;nbsp;" style="rounded=0;whiteSpace=wrap;html=1;" vertex="1" parent="1">
          <mxGeometry x="354" y="40" width="120" height="60" as="geometry" />
        </mxCell>
        <mxCell id="NbOxTdNeNUbGnm58rGbm-4" style="edgeStyle=orthogonalEdgeStyle;rounded=0;orthogonalLoop=1;jettySize=auto;html=1;exitX=0.5;exitY=1;exitDx=0;exitDy=0;" edge="1" parent="1" source="NbOxTdNeNUbGnm58rGbm-3" target="NbOxTdNeNUbGnm58rGbm-5">
          <mxGeometry relative="1" as="geometry">
            <mxPoint x="414" y="300" as="targetPoint" />
          </mxGeometry>
        </mxCell>
        <mxCell id="NbOxTdNeNUbGnm58rGbm-3" value="User Management&lt;div&gt;&lt;br&gt;- Register User&lt;br&gt;- Login&lt;br&gt;- Profile Management&lt;br&gt;- Balance Management&lt;/div&gt;" style="rounded=0;whiteSpace=wrap;html=1;" vertex="1" parent="1">
          <mxGeometry x="334" y="150" width="160" height="100" as="geometry" />
        </mxCell>
        <mxCell id="NbOxTdNeNUbGnm58rGbm-6" style="edgeStyle=orthogonalEdgeStyle;rounded=0;orthogonalLoop=1;jettySize=auto;html=1;exitX=0.5;exitY=1;exitDx=0;exitDy=0;" edge="1" parent="1" source="NbOxTdNeNUbGnm58rGbm-5" target="NbOxTdNeNUbGnm58rGbm-7">
          <mxGeometry relative="1" as="geometry">
            <mxPoint x="414" y="430" as="targetPoint" />
          </mxGeometry>
        </mxCell>
        <mxCell id="NbOxTdNeNUbGnm58rGbm-5" value="&amp;nbsp;Group Managemen&lt;span style=&quot;background-color: initial;&quot;&gt;t&lt;/span&gt;&lt;div&gt;&lt;span style=&quot;background-color: initial;&quot;&gt;&amp;nbsp;- Create Group&lt;/span&gt;&lt;/div&gt;&lt;div&gt;&lt;span style=&quot;background-color: initial;&quot;&gt;- Join Group&amp;nbsp;&lt;/span&gt;&lt;/div&gt;&lt;div&gt;&lt;span style=&quot;background-color: initial;&quot;&gt;- Manage Group&lt;/span&gt;&lt;/div&gt;" style="rounded=0;whiteSpace=wrap;html=1;" vertex="1" parent="1">
          <mxGeometry x="334" y="300" width="160" height="80" as="geometry" />
        </mxCell>
        <mxCell id="NbOxTdNeNUbGnm58rGbm-8" style="edgeStyle=orthogonalEdgeStyle;rounded=0;orthogonalLoop=1;jettySize=auto;html=1;exitX=0.5;exitY=1;exitDx=0;exitDy=0;" edge="1" parent="1" source="NbOxTdNeNUbGnm58rGbm-7" target="NbOxTdNeNUbGnm58rGbm-9">
          <mxGeometry relative="1" as="geometry">
            <mxPoint x="414" y="550" as="targetPoint" />
          </mxGeometry>
        </mxCell>
        <mxCell id="NbOxTdNeNUbGnm58rGbm-7" value="&amp;nbsp;Event Management&lt;br&gt;- Create Event&lt;br&gt;- Assign Costs&lt;br&gt;- Track Payments" style="rounded=0;whiteSpace=wrap;html=1;" vertex="1" parent="1">
          <mxGeometry x="329" y="420" width="170" height="90" as="geometry" />
        </mxCell>
        <mxCell id="NbOxTdNeNUbGnm58rGbm-10" style="edgeStyle=orthogonalEdgeStyle;rounded=0;orthogonalLoop=1;jettySize=auto;html=1;" edge="1" parent="1" source="NbOxTdNeNUbGnm58rGbm-9" target="NbOxTdNeNUbGnm58rGbm-11">
          <mxGeometry relative="1" as="geometry">
            <mxPoint x="414.5" y="700" as="targetPoint" />
          </mxGeometry>
        </mxCell>
        <mxCell id="NbOxTdNeNUbGnm58rGbm-9" value="Chat and Collaboration&amp;nbsp;&lt;div&gt;- Group Chat&lt;/div&gt;&lt;div&gt;- Notifications&lt;/div&gt;" style="rounded=0;whiteSpace=wrap;html=1;" vertex="1" parent="1">
          <mxGeometry x="330" y="570" width="169" height="80" as="geometry" />
        </mxCell>
        <mxCell id="NbOxTdNeNUbGnm58rGbm-11" value="Security and Compliance&lt;div&gt;&amp;nbsp;- Transaction Limit&lt;/div&gt;&lt;div&gt;- Data Encryption&amp;nbsp;&lt;/div&gt;&lt;div&gt;- Audit Log&lt;/div&gt;" style="rounded=0;whiteSpace=wrap;html=1;" vertex="1" parent="1">
          <mxGeometry x="329" y="690" width="171" height="100" as="geometry" />
        </mxCell>
      </root>
    </mxGraphModel>
  </diagram>
</mxfile>
